<?xml version="1.0" encoding="UTF-8" standalone="no"?>
<svg
   xmlns:dc="http://purl.org/dc/elements/1.1/"
   xmlns:cc="http://creativecommons.org/ns#"
   xmlns:rdf="http://www.w3.org/1999/02/22-rdf-syntax-ns#"
   xmlns:svg="http://www.w3.org/2000/svg"
   xmlns="http://www.w3.org/2000/svg"
   xmlns:sodipodi="http://sodipodi.sourceforge.net/DTD/sodipodi-0.dtd"
   xmlns:inkscape="http://www.inkscape.org/namespaces/inkscape"
   id="b49f4f68-d79e-4476-a14b-b3f27440c724"
   data-name="Layer 1"
   width="995.00139"
   height="836.74873"
   viewBox="0 0 995.00139 836.74873"
   version="1.1"
   sodipodi:docname="main-background.svg"
   inkscape:version="1.0 (4035a4fb49, 2020-05-01)">
  <metadata
     id="metadata1546">
    <rdf:RDF>
      <cc:Work
         rdf:about="">
        <dc:format>image/svg+xml</dc:format>
        <dc:type
           rdf:resource="http://purl.org/dc/dcmitype/StillImage" />
        <dc:title>coffee break</dc:title>
      </cc:Work>
    </rdf:RDF>
  </metadata>
  <defs
     id="defs1544" />
  <sodipodi:namedview
     inkscape:document-rotation="0"
     pagecolor="#ffffff"
     bordercolor="#666666"
     borderopacity="1"
     objecttolerance="10"
     gridtolerance="10"
     guidetolerance="10"
     inkscape:pageopacity="0"
     inkscape:pageshadow="2"
     inkscape:window-width="1920"
     inkscape:window-height="1051"
     id="namedview1542"
     showgrid="false"
     inkscape:zoom="1.0516897"
     inkscape:cx="478.88743"
     inkscape:cy="455.68429"
     inkscape:window-x="-9"
     inkscape:window-y="-9"
     inkscape:window-maximized="1"
     inkscape:current-layer="b49f4f68-d79e-4476-a14b-b3f27440c724" />
  <title
     id="title1427">coffee break</title>
  <path
     transform="translate(-102.4993 -31.62564)"
     d="M813.829,123.00305C728.84365,122.61259,652.46167,159.695,600,218.77294c-52.46166-59.078-128.84361-96.16033-213.829-95.76989C226.58573,123.73624,99.4,255.11349,102.55682,415.7889,105.61848,571.62246,232.01956,697,387.5,697q9.04848,0,17.95993-.56082a3110.9144,3110.9144,0,0,1,389.08014,0q8.90871.558,17.95993.56082c155.48048,0,281.88149-125.37751,284.94318-281.211C1100.6,255.11355,973.41432,123.73626,813.829,123.00305Z"
     fill="#f2f2f2"
     id="path1429" />
  <g
     transform="translate(-34.562431)"
     id="g2356">
    <path
       id="path1443"
       stroke-miterlimit="10"
       stroke="#3f3d56"
       fill="none"
       d="m 852.36056,317.873 a 22.982,22.982 0 0 0 -23.90166,3.6047 c -9.75859,8.52522 -10.29541,23.95946 -5.59844,36.03621 4.69697,12.07675 13.49695,22.01331 20.59236,32.856 9.53031,14.56357 16.177,31.51463 15.92735,48.91757 -0.24965,17.40294 -8.17714,35.181 -22.75119,44.69525 -13.52721,8.8309 -30.577,9.67444 -46.7215,10.24405"
       transform="translate(-102.4993,-31.62564)" />
    <ellipse
       id="ellipse1445"
       fill="#57b894"
       transform="rotate(-63.61541,786.45655,391.23455)"
       ry="17.5"
       rx="8.5"
       cy="324.41495"
       cx="863.20203" />
    <ellipse
       id="ellipse1447"
       fill="#57b894"
       transform="rotate(-63.61541,774.11211,447.62262)"
       ry="17.5"
       rx="8.5"
       cy="380.80301"
       cx="850.8576" />
    <ellipse
       id="ellipse1449"
       fill="#57b894"
       transform="rotate(-63.61541,741.44596,441.46448)"
       ry="17.5"
       rx="8.5"
       cy="374.6449"
       cx="818.19147" />
    <ellipse
       id="ellipse1451"
       fill="#57b894"
       transform="rotate(-63.61541,765.351,505.78827)"
       ry="17.5"
       rx="8.5"
       cy="438.96866"
       cx="842.0965" />
    <ellipse
       id="ellipse1453"
       fill="#57b894"
       transform="rotate(-63.61541,796.70509,521.34207)"
       ry="17.5"
       rx="8.5"
       cy="454.52246"
       cx="873.45056" />
    <path
       id="path1455"
       stroke-miterlimit="10"
       stroke="#3f3d56"
       fill="none"
       d="m 400.50311,398.03475 a 22.982,22.982 0 0 1 23.543,-5.47806 c 12.21732,4.31817 18.41669,18.46285 18.51229,31.42048 0.0956,12.95763 -4.41219,25.44182 -7.00123,38.13852 -3.47752,17.05378 -3.39352,35.26119 3.26612,51.34142 6.65964,16.08023 20.59278,29.67328 37.65037,33.132 15.83237,3.21032 31.98817,-2.303 47.20155,-7.73649"
       transform="translate(-102.4993,-31.62564)" />
    <ellipse
       id="ellipse1457"
       fill="#57b894"
       transform="rotate(-48.05964,306.12825,507.25311)"
       ry="8.5"
       rx="17.5"
       cy="408.11838"
       cx="392.84442" />
    <ellipse
       id="ellipse1459"
       fill="#57b894"
       transform="rotate(-48.05964,338.42635,555.09485)"
       ry="8.5"
       rx="17.5"
       cy="455.96014"
       cx="425.14252" />
    <ellipse
       id="ellipse1461"
       fill="#57b894"
       transform="rotate(-48.05964,366.50833,537.30717)"
       ry="8.5"
       rx="17.5"
       cy="438.17245"
       cx="453.22452" />
    <ellipse
       id="ellipse1463"
       fill="#57b894"
       transform="rotate(-48.05964,368.051,605.91197)"
       ry="8.5"
       rx="17.5"
       cy="506.77725"
       cx="454.76718" />
    <ellipse
       id="ellipse1465"
       fill="#57b894"
       transform="rotate(-48.05964,344.65853,631.94639)"
       ry="8.5"
       rx="17.5"
       cy="532.81171"
       cx="431.37469" />
    <path
       id="path1467"
       fill="#f0f5f9"
       d="m 802.98,282.5856 -2.75,20.17 -17,124.46 -27.84,203.82 -6.97,51.03 a 16.25533,16.25533 0 0 1 -16.11,14.06 H 546.66 a 16.26025,16.26025 0 0 1 -16.11,-14.02 l -7.09,-51.07 -28.31,-203.82 -17.3,-124.55 -2.78,-20.04 a 16.25518,16.25518 0 0 1 16.1,-18.5 h 295.7 a 16.2658,16.2658 0 0 1 16.11,18.46 z"
       transform="translate(-102.4993,-31.62564)" />
    <rect
       id="rect1469"
       fill="#2f2e41"
       rx="16.26001"
       height="54"
       width="290"
       y="178.5"
       x="392.0007" />
    <path
       id="path1471"
       opacity="0.1"
       d="m 784.5,235.6456 v 12.22 a 16.26023,16.26023 0 0 1 -16.26,16.26 H 510.76 a 16.26023,16.26023 0 0 1 -16.26,-16.26 v -12.19 a 1526.9998,1526.9998 0 0 0 290,-0.03 z"
       transform="translate(-102.4993,-31.62564)" />
    <path
       id="path1485"
       opacity="0.1"
       d="m 802.05542,274.62564 h 0.002 c -0.005,-0.0123 -0.0106,-0.0239 -0.0153,-0.0361 a 16.2567,16.2567 0 0 0 -1.64135,-3.186 l -0.002,-0.003 c -0.19605,-0.29456 -0.40326,-0.57953 -0.61774,-0.86048 -0.0715,-0.094 -0.14526,-0.186 -0.21875,-0.27844 a 16.37183,16.37183 0 0 0 -2.07257,-2.16065 c -0.16858,-0.14666 -0.33856,-0.29126 -0.51318,-0.431 -0.19611,-0.15643 -0.39338,-0.31012 -0.59681,-0.45758 -0.25433,-0.18487 -0.51678,-0.35864 -0.78216,-0.52887 -0.20935,-0.13391 -0.41937,-0.26538 -0.63532,-0.38983 q -0.50005,-0.28922 -1.02166,-0.54406 c -0.166,-0.0804 -0.33429,-0.15522 -0.50342,-0.23011 q -0.49851,-0.22137 -1.01489,-0.40863 c -0.13874,-0.0505 -0.2746,-0.10577 -0.41517,-0.15252 q -0.71457,-0.23841 -1.45861,-0.41089 c -0.12146,-0.0281 -0.24573,-0.048 -0.36823,-0.0734 q -0.60846,-0.126 -1.2337,-0.20569 c -0.15082,-0.0192 -0.30091,-0.0387 -0.45307,-0.0538 -0.53393,-0.0529 -1.07306,-0.0892 -1.62249,-0.0893 l -0.001,-6e-5 h -295.7 a 16.3036,16.3036 0 0 0 -16.10113,18.49572 l 0.4696,3.38111 2.31153,16.66314 0.003,2.5e-4 17.29857,124.54974 h -0.001 l 22.70832,163.49011 12.69409,91.39765 a 16.25911,16.25911 0 0 0 16.10449,14.02228 h 8.81024 a 16.24007,16.24007 0 0 1 -0.91473,-3.52228 l -8.55109,-61.56775 H 755.39 l 27.84,-203.82 H 517.69305 L 500.67133,304.65933 A 1718.367,1718.367 0 0 0 800.23,302.75564 l 2.75,-20.17 a 16.13653,16.13653 0 0 0 -0.92458,-7.96 z"
       transform="translate(-102.4993,-31.62564)" />
    <path
       id="path1487"
       fill="#2f2e41"
       d="m 826.241,291.12564 a 1720.9932,1720.9932 0 0 1 -373.48194,0 16.259,16.259 0 0 1 -16.259,-16.259 v -21.482 a 16.259,16.259 0 0 1 16.259,-16.259 1530.2492,1530.2492 0 0 0 373.48194,0 16.259,16.259 0 0 1 16.259,16.259 v 21.482 a 16.259,16.259 0 0 1 -16.259,16.259 z"
       transform="translate(-102.4993,-31.62564)" />
    <path
       id="path1489"
       fill="#2f2e41"
       d="m 763.03436,623.62564 h -249.9851 a 9.42768,9.42768 0 0 1 -9.31112,-7.94974 L 476.73105,445.53128 a 9.42769,9.42769 0 0 1 9.31113,-10.90564 h 305.79973 a 9.42769,9.42769 0 0 1 9.2954,11.00151 l -28.80756,170.14462 a 9.42769,9.42769 0 0 1 -9.29539,7.85387 z"
       transform="translate(-102.4993,-31.62564)" />
  </g>
  <line
     x1="126.5007"
     y1="665"
     x2="817.5007"
     y2="665"
     fill="none"
     stroke="#3f3d56"
     stroke-miterlimit="10"
     id="line1495" />
  <path
     d="M273.91,586.17171l-.19054,1.39753-1.17788,8.6235-1.929,14.12215-.48293,3.53574a1.12631,1.12631,0,0,1-1.11622.97418h-12.8632a1.12662,1.12662,0,0,1-1.11622-.97141l-.49125-3.53851-1.96152-14.12215-1.19868-8.62974-.19261-1.38852a1.12628,1.12628,0,0,1,1.11552-1.28182H272.7938A1.127,1.127,0,0,1,273.91,586.17171Z"
     transform="translate(-102.4993 -31.62564)"
     fill="#f0f5f9"
     id="path1533" />
  <g
     transform="translate(-18.066165)"
     id="g2379">
    <path
       id="path1497"
       fill="#a0616a"
       d="M 286.15186,604.07028 V 632.201 l 14.44548,16.72634 c 0,0 6.0823,-2.28087 6.0823,-17.48663 l 2.28087,-22.04837 z"
       transform="translate(-102.4993,-31.62564)" />
    <path
       id="path1499"
       fill="#a0616a"
       d="m 300.59734,632.201 c 0,0 -23.56894,-15.96606 -24.32923,-21.28808 -0.76029,-5.32202 -34.213,-29.65125 -28.891,-14.44548 5.322,15.20577 22.04836,22.04836 22.04836,22.04836 0,0 12.92491,34.97327 24.32923,34.213 11.40432,-0.76027 11.40437,-15.2058 6.84264,-20.5278 z"
       transform="translate(-102.4993,-31.62564)" />
    <polygon
       id="polygon1501"
       fill="#3f3d56"
       points="214.064,785.325 201.899,782.284 201.899,771.64 211.783,771.64 " />
    <path
       id="path1503"
       fill="#2f2e41"
       d="m 312.00166,810.86873 c 0,0 -14.05972,-8.32964 -14.63274,-4.545 -0.57302,3.78464 -6.65533,18.23015 -9.69649,19.75073 -3.04116,1.52058 -6.84259,18.24692 0,17.48663 5.29967,-0.58885 24.73757,-10.75521 33.23418,-15.31008 a 4.64254,4.64254 0 0 0 1.99621,-6.067 9.579,9.579 0 0 1 -1.01741,-2.95218 c 0,-1.5205 -9.88375,-8.3631 -9.88375,-8.3631 z"
       transform="translate(-102.4993,-31.62564)" />
    <path
       id="path1505"
       fill="#2f2e41"
       d="m 318.84426,656.53018 c 0,0 -55.50106,25.84981 -50.179,45.61731 5.32206,19.7675 25.08952,103.39922 25.08952,103.39922 0,0 22.04837,5.322 23.56894,0 1.52057,-5.322 -14.44548,-88.19345 -12.9249,-91.23461 1.52058,-3.04116 29.65118,-22.80865 29.65118,-22.80865 l 57.782,-24.32923 -24.32923,-22.80865 z"
       transform="translate(-102.4993,-31.62564)" />
    <polygon
       id="polygon1507"
       fill="#3f3d56"
       points="167.686,793.689 179.851,799.011 187.454,785.325 174.529,776.202 " />
    <path
       id="path1509"
       fill="#a0616a"
       transform="translate(-102.4993,-31.62564)"
       d="m 318.084,531.84288 c 0,0 6.8426,9.12347 1.52058,13.6852 -5.32202,4.56173 -1.52058,21.28807 -1.52058,21.28807 l 6.8426,19.00721 27.37038,-5.322 v -31.17184 l -1.52058,-15.20577 c 0,0 -13.68519,-12.9249 -15.20577,-22.80865 -1.52058,-9.88375 -17.48663,20.52778 -17.48663,20.52778 z" />
    <path
       id="path1511"
       opacity="0.1"
       d="m 318.084,531.84288 c 0,0 6.8426,9.12347 1.52058,13.6852 -5.32202,4.56173 -1.52058,21.28807 -1.52058,21.28807 l 6.8426,19.00721 27.37038,-5.322 v -31.17184 l -1.52058,-15.20577 c 0,0 -13.68519,-12.9249 -15.20577,-22.80865 -1.52058,-9.88375 -17.48663,20.52778 -17.48663,20.52778 z"
       transform="translate(-102.4993,-31.62564)" />
    <path
       id="path1513"
       fill="#2f2e41"
       d="m 363.70128,650.44788 c 0,0 -35.73356,39.535 -35.73356,41.05557 0,1.52057 -19.00721,32.6924 -19.00721,32.6924 l -37.25413,82.87144 c 0,0 14.44548,19.7675 20.52778,18.24692 6.0823,-1.52058 49.41875,-89.714 49.41875,-89.714 0,0 7.60289,-19.7675 28.13067,-24.32923 20.52778,-4.56173 36.49385,-20.52779 28.891,-38.77471 -7.60285,-18.24692 -34.9733,-22.04839 -34.9733,-22.04839 z"
       transform="translate(-102.4993,-31.62564)" />
    <circle
       id="circle1515"
       fill="#a0616a"
       r="24.329229"
       cy="481.21005"
       cx="215.58467" />
    <path
       id="path1517"
       fill="#f2f2f2"
       d="m 318.84426,552.37067 c 0,0 3.04115,17.48663 6.08231,19.00721 3.04116,1.52058 5.322,6.8426 12.16461,-0.76029 6.84261,-7.60289 12.9249,-22.80865 12.9249,-22.80865 l 23.569,28.891 2.28086,79.83028 c 0,0 -26.61009,-6.84259 -34.97327,0 -8.36318,6.84259 -26.61009,6.08231 -26.61009,6.08231 l 3.80144,-15.20577 -3.04115,-25.8498 0.76029,-23.56894 0.76028,-16.72635 z"
       transform="translate(-102.4993,-31.62564)" />
    <path
       id="path1519"
       fill="#3f3d56"
       d="m 321.52262,539.57351 c 0,0 -10.28124,5.19428 -11.04153,8.23543 -0.76029,3.04115 -14.44548,9.12346 -14.44548,9.12346 0,0 -5.322,5.322 -5.322,8.36317 0,3.04117 18.2469,38.01443 18.2469,38.01443 0,0 3.80144,23.56894 2.28087,28.13067 -1.52057,4.56173 3.04115,22.04836 3.04115,22.04836 l -9.12346,10.644 h 8.36317 c 0,0 9.12346,-4.56173 9.12346,-6.8426 0,-2.28087 -1.52058,-18.24692 -2.28086,-25.08951 -0.76028,-6.84259 -0.76029,-31.17183 0.76028,-39.535 1.52057,-8.36317 0.76029,-30.41154 0.76029,-35.73356 0,-5.32202 -0.36279,-17.35885 -0.36279,-17.35885 z"
       transform="translate(-102.4993,-31.62564)" />
    <path
       id="path1521"
       fill="#3f3d56"
       d="m 345.07421,528.02893 c 0,0 3.4213,0.7728 13.305,3.814 9.8837,3.0412 25.08951,7.60289 30.41153,13.6852 a 94.24729,94.24729 0 0 1 9.88375,14.44548 l -3.04115,54.74076 c 0,0 6.08231,11.40433 5.322,17.48664 -0.76031,6.08231 -6.8426,6.84259 -2.28087,19.76749 4.56173,12.9249 13.68519,24.32923 5.322,25.84981 -8.36319,1.52058 -30.41153,-3.80144 -40.29528,-0.76029 -9.88375,3.04115 -21.28808,-11.40432 -21.28808,-11.40432 0,0 15.20577,1.52057 12.9249,-4.56174 -2.28087,-6.08231 -27.37038,-74.50826 -22.04836,-89.714 5.32202,-15.20574 11.78456,-43.34903 11.78456,-43.34903 z"
       transform="translate(-102.4993,-31.62564)" />
    <path
       id="path1523"
       fill="#3f3d56"
       d="m 294.515,561.49413 -3.80144,3.04116 c 0,0 -10.644,38.01442 -7.60289,41.81586 3.04111,3.80144 27.37039,12.16461 28.891,6.84259 1.52061,-5.32202 -17.48667,-51.69961 -17.48667,-51.69961 z"
       transform="translate(-102.4993,-31.62564)" />
    <path
       id="path1525"
       fill="#a0616a"
       d="m 407.03772,588.10423 c 0,0 11.40432,32.6924 11.40432,41.81586 0,9.12346 -1.52058,62.34365 -1.52058,62.34365 0,0 -0.76028,22.80865 -16.72634,13.68519 -15.96606,-9.12346 0,-15.20577 0,-15.20577 0,0 -0.76029,-60.06278 -6.8426,-68.42595 -6.08231,-8.36317 -8.36317,-20.52779 -8.36317,-20.52779 z"
       transform="translate(-102.4993,-31.62564)" />
    <path
       id="path1527"
       fill="#2f2e41"
       d="m 282.35042,824.55392 c 0,0 -11.40433,-6.0823 -13.6852,-1.52057 -2.28087,4.56173 -14.44548,29.65125 -12.9249,32.6924 1.52058,3.04115 9.88375,15.20577 19.7675,12.16461 9.88375,-3.04116 10.644,-19.00721 10.644,-19.00721 l 0.76029,-18.24692 z"
       transform="translate(-102.4993,-31.62564)" />
    <path
       id="path1529"
       fill="#2f2e41"
       d="m 313.31994,506.95891 c 1.6759,0.78886 3.664,1.2602 4.71714,2.784 0.78033,1.1291 0.8579,2.59638 1.42727,3.84522 a 5.43744,5.43744 0 0 0 6.99527,2.55818 6.03223,6.03223 0 0 1 2.45993,-3.73583 3.583,3.583 0 0 1 4.25368,0.23352 c 1.56706,1.494 1.01244,4.09923 1.74363,6.1371 a 12.95311,12.95311 0 0 0 2.78617,3.82048 c 1.66408,1.92 2.9898,4.17181 4.99378,5.73377 2.00398,1.56196 5.043,2.23889 7.03394,0.66032 1.6741,-1.32737 2.02109,-3.77624 1.61458,-5.87368 -0.40651,-2.09744 -1.41475,-4.02891 -1.98336,-6.08833 -1.84761,-6.69179 1.098,-13.83608 0.18662,-20.71818 -1.16775,-8.81839 -8.66294,-15.784 -17.02889,-18.807 a 19.922,19.922 0 0 0 -10.99393,-1.16482 c -3.82594,0.85429 -7.09438,3.29007 -10.75866,4.68315 -3.91853,1.48974 -8.17957,1.74987 -12.28027,2.62079 -4.1007,0.87092 -8.32062,2.55482 -10.70025,6.00614 -1.65974,2.40721 -2.23022,5.39673 -3.60572,7.97693 a 14.311,14.311 0 0 1 -7.24878,6.49424 l 4.33481,-0.24707 a 12.777,12.777 0 0 1 -3.45385,5.04091 9.26945,9.26945 0 0 0 6.00092,-0.79323 6.52323,6.52323 0 0 1 -2.23734,4.67625 c 3.33564,-0.10048 6.85319,-0.25422 9.67172,-2.041 1.38059,-0.87519 2.50644,-2.09416 3.8056,-3.08621 2.7692,-2.11458 6.20478,-3.11829 9.55388,-4.07948 1.7586,-0.50471 3.87536,-1.20653 5.46579,-0.0755 1.32444,0.94194 1.53355,2.6331 3.24632,3.43933 z"
       transform="translate(-102.4993,-31.62564)" />
    <path
       id="path1531"
       fill="#3f3d56"
       d="m 387.27022,550.85009 11.40432,9.12347 15.20577,34.97326 c 0,0 -21.28807,16.72635 -26.61009,14.44548 -5.32202,-2.28087 -14.44548,-42.57615 -14.44548,-42.57615 z"
       transform="translate(-102.4993,-31.62564)" />
    <rect
       id="rect1535"
       fill="#2f2e41"
       rx="1.12661"
       height="3.7415199"
       width="20.09334"
       y="549.52551"
       x="150.03694" />
    <path
       id="path1537"
       fill="#2f2e41"
       d="m 275.52171,586.76342 a 119.24225,119.24225 0 0 1 -25.87758,0 1.12654,1.12654 0 0 1 -1.12655,-1.12654 v -1.48843 a 1.12655,1.12655 0 0 1 1.12655,-1.12655 106.0267,106.0267 0 0 0 25.87758,0 1.12655,1.12655 0 0 1 1.12654,1.12655 v 1.48843 a 1.12654,1.12654 0 0 1 -1.12654,1.12654 z"
       transform="translate(-102.4993,-31.62564)" />
    <path
       id="path1539"
       fill="#2f2e41"
       d="m 271.14229,609.80147 h -17.32081 a 0.65322,0.65322 0 0 1 -0.64515,-0.55081 l -1.87125,-11.78888 a 0.65323,0.65323 0 0 1 0.64515,-0.75562 h 21.18806 a 0.65322,0.65322 0 0 1 0.644,0.76227 l -1.996,11.78887 a 0.65322,0.65322 0 0 1 -0.644,0.54417 z"
       transform="translate(-102.4993,-31.62564)" />
  </g>
</svg>
