<?xml version="1.0" encoding="UTF-8" standalone="no"?>
<svg
   xmlns:dc="http://purl.org/dc/elements/1.1/"
   xmlns:cc="http://creativecommons.org/ns#"
   xmlns:rdf="http://www.w3.org/1999/02/22-rdf-syntax-ns#"
   xmlns:svg="http://www.w3.org/2000/svg"
   xmlns="http://www.w3.org/2000/svg"
   xmlns:sodipodi="http://sodipodi.sourceforge.net/DTD/sodipodi-0.dtd"
   xmlns:inkscape="http://www.inkscape.org/namespaces/inkscape"
   id="b49f4f68-d79e-4476-a14b-b3f27440c724"
   data-name="Layer 1"
   width="995.00139"
   height="836.74873"
   viewBox="0 0 995.00139 836.74873"
   version="1.1"
   sodipodi:docname="main-background-phone.svg"
   inkscape:version="1.0 (4035a4fb49, 2020-05-01)">
  <metadata
     id="metadata1546">
    <rdf:RDF>
      <cc:Work
         rdf:about="">
        <dc:format>image/svg+xml</dc:format>
        <dc:type
           rdf:resource="http://purl.org/dc/dcmitype/StillImage" />
        <dc:title>coffee break</dc:title>
      </cc:Work>
    </rdf:RDF>
  </metadata>
  <defs
     id="defs1544">
    <rect
       id="rect862"
       height="117.9055"
       width="232.95845"
       y="452.60498"
       x="387.94713" />
  </defs>
  <sodipodi:namedview
     inkscape:document-rotation="0"
     pagecolor="#ffffff"
     bordercolor="#666666"
     borderopacity="1"
     objecttolerance="10"
     gridtolerance="10"
     guidetolerance="10"
     inkscape:pageopacity="0"
     inkscape:pageshadow="2"
     inkscape:window-width="1920"
     inkscape:window-height="1051"
     id="namedview1542"
     showgrid="false"
     inkscape:zoom="1.0516897"
     inkscape:cx="478.88743"
     inkscape:cy="348.44672"
     inkscape:window-x="-9"
     inkscape:window-y="-9"
     inkscape:window-maximized="1"
     inkscape:current-layer="b49f4f68-d79e-4476-a14b-b3f27440c724" />
  <title
     id="title1427">coffee break</title>
  <path
     d="M813.829,123.00305C728.84365,122.61259,652.46167,159.695,600,218.77294c-52.46166-59.078-128.84361-96.16033-213.829-95.76989C226.58573,123.73624,99.4,255.11349,102.55682,415.7889,105.61848,571.62246,232.01956,697,387.5,697q9.04848,0,17.95993-.56082a3110.9144,3110.9144,0,0,1,389.08014,0q8.90871.558,17.95993.56082c155.48048,0,281.88149-125.37751,284.94318-281.211C1100.6,255.11355,973.41432,123.73626,813.829,123.00305Z"
     fill="#f2f2f2"
     id="path1429"
     transform="translate(-102.4993 -31.62564)" />
  <path
     d="m 715.29883,286.24736 a 22.982,22.982 0 0 0 -23.90166,3.6047 c -9.75859,8.52522 -10.29541,23.95946 -5.59844,36.03621 4.69697,12.07675 13.49695,22.01331 20.59236,32.856 9.53031,14.56357 16.177,31.51463 15.92735,48.91757 -0.24965,17.40294 -8.17714,35.181 -22.75119,44.69525 -13.52721,8.8309 -30.577,9.67444 -46.7215,10.24405"
     fill="none"
     stroke="#3f3d56"
     stroke-miterlimit="10"
     id="path1443" />
  <ellipse
     cx="60.402744"
     cy="780.6131"
     rx="8.5"
     ry="17.5"
     transform="rotate(-63.61541)"
     fill="#57b894"
     id="ellipse1445" />
  <ellipse
     cx="4.4027672"
     cy="794.6131"
     rx="8.5"
     ry="17.5"
     transform="rotate(-63.61541)"
     fill="#57b894"
     id="ellipse1447" />
  <ellipse
     cx="-4.5972152"
     cy="762.6131"
     rx="8.5"
     ry="17.5"
     transform="rotate(-63.61541)"
     fill="#57b894"
     id="ellipse1449" />
  <ellipse
     cx="-51.597229"
     cy="812.6131"
     rx="8.5"
     ry="17.5"
     transform="rotate(-63.61541)"
     fill="#57b894"
     id="ellipse1451" />
  <ellipse
     cx="-51.597256"
     cy="847.6131"
     rx="8.5"
     ry="17.5"
     transform="rotate(-63.61541)"
     fill="#57b894"
     id="ellipse1453" />
  <path
     d="m 263.44138,366.40911 a 22.982,22.982 0 0 1 23.543,-5.47806 c 12.21732,4.31817 18.41669,18.46285 18.51229,31.42048 0.0956,12.95763 -4.41219,25.44182 -7.00123,38.13852 -3.47752,17.05378 -3.39352,35.26119 3.26612,51.34142 6.65964,16.08023 20.59278,29.67328 37.65037,33.132 15.83237,3.21032 31.98817,-2.303 47.20155,-7.73649"
     fill="none"
     stroke="#3f3d56"
     stroke-miterlimit="10"
     id="path1455" />
  <ellipse
     cx="-109.09662"
     cy="441.89304"
     rx="17.5"
     ry="8.5"
     transform="rotate(-48.05964)"
     fill="#57b894"
     id="ellipse1457" />
  <ellipse
     cx="-123.09662"
     cy="497.89307"
     rx="17.5"
     ry="8.5"
     transform="rotate(-48.05964)"
     fill="#57b894"
     id="ellipse1459" />
  <ellipse
     cx="-91.096611"
     cy="506.89307"
     rx="17.5"
     ry="8.5"
     transform="rotate(-48.05964)"
     fill="#57b894"
     id="ellipse1461" />
  <ellipse
     cx="-141.09662"
     cy="553.89307"
     rx="17.5"
     ry="8.5"
     transform="rotate(-48.05964)"
     fill="#57b894"
     id="ellipse1463" />
  <ellipse
     cx="-176.09662"
     cy="553.89307"
     rx="17.5"
     ry="8.5"
     transform="rotate(-48.05964)"
     fill="#57b894"
     id="ellipse1465" />
  <path
     d="m 665.91827,250.95996 -2.75,20.17 -17,124.46 -27.84,203.82 -6.97,51.03 a 16.25533,16.25533 0 0 1 -16.11,14.06 h -185.65 a 16.26025,16.26025 0 0 1 -16.11,-14.02 l -7.09,-51.07 -28.31,-203.82 -17.3,-124.55 -2.78,-20.04 a 16.25518,16.25518 0 0 1 16.1,-18.5 h 295.7 a 16.2658,16.2658 0 0 1 16.11,18.46 z"
     fill="#f0f5f9"
     id="path1467" />
  <rect
     x="357.43826"
     y="178.5"
     width="290"
     height="54"
     rx="16.26001"
     fill="#2f2e41"
     id="rect1469" />
  <path
     d="m 647.43827,204.01996 v 12.22 a 16.26023,16.26023 0 0 1 -16.26,16.26 h -257.48 a 16.26023,16.26023 0 0 1 -16.26,-16.26 v -12.19 a 1526.9998,1526.9998 0 0 0 290,-0.03 z"
     opacity="0.1"
     id="path1471" />
  <path
     d="m 664.99369,243 h 0.002 c -0.005,-0.0123 -0.0106,-0.0239 -0.0153,-0.0361 a 16.2567,16.2567 0 0 0 -1.64135,-3.186 l -0.002,-0.003 c -0.19605,-0.29456 -0.40326,-0.57953 -0.61774,-0.86048 -0.0715,-0.094 -0.14526,-0.186 -0.21875,-0.27844 a 16.37183,16.37183 0 0 0 -2.07257,-2.16065 c -0.16858,-0.14666 -0.33856,-0.29126 -0.51318,-0.431 -0.19611,-0.15643 -0.39338,-0.31012 -0.59681,-0.45758 -0.25433,-0.18487 -0.51678,-0.35864 -0.78216,-0.52887 -0.20935,-0.13391 -0.41937,-0.26538 -0.63532,-0.38983 q -0.50005,-0.28922 -1.02166,-0.54406 c -0.166,-0.0804 -0.33429,-0.15522 -0.50342,-0.23011 q -0.49851,-0.22137 -1.01489,-0.40863 c -0.13874,-0.0505 -0.2746,-0.10577 -0.41517,-0.15252 q -0.71457,-0.23841 -1.45861,-0.41089 c -0.12146,-0.0281 -0.24573,-0.048 -0.36823,-0.0734 q -0.60846,-0.126 -1.2337,-0.20569 c -0.15082,-0.0192 -0.30091,-0.0387 -0.45307,-0.0538 -0.53393,-0.0529 -1.07306,-0.0892 -1.62249,-0.0893 l -10e-4,-6e-5 h -295.7 a 16.3036,16.3036 0 0 0 -16.10113,18.49572 l 0.4696,3.38111 2.31153,16.66314 0.003,2.5e-4 17.29857,124.54974 h -10e-4 l 22.70832,163.49011 12.69409,91.39765 a 16.25911,16.25911 0 0 0 16.10449,14.02228 h 8.81024 a 16.24007,16.24007 0 0 1 -0.91473,-3.52228 l -8.55109,-61.56775 h 209.38811 l 27.84,-203.82 H 380.63132 L 363.6096,273.03369 A 1718.367,1718.367 0 0 0 663.16827,271.13 l 2.75,-20.17 A 16.13653,16.13653 0 0 0 664.99369,243 Z"
     opacity="0.1"
     id="path1485" />
  <path
     d="m 689.17927,259.5 a 1720.9932,1720.9932 0 0 1 -373.48194,0 16.259,16.259 0 0 1 -16.259,-16.259 v -21.482 a 16.259,16.259 0 0 1 16.259,-16.259 1530.2492,1530.2492 0 0 0 373.48194,0 16.259,16.259 0 0 1 16.259,16.259 v 21.482 a 16.259,16.259 0 0 1 -16.259,16.259 z"
     fill="#2f2e41"
     id="path1487" />
  <path
     d="m 625.97263,592 h -249.9851 a 9.42768,9.42768 0 0 1 -9.31112,-7.94974 L 339.66932,413.90564 A 9.42769,9.42769 0 0 1 348.98045,403 h 305.79973 a 9.42769,9.42769 0 0 1 9.2954,11.00151 L 635.26802,584.14613 A 9.42769,9.42769 0 0 1 625.97263,592 Z"
     fill="#2f2e41"
     id="path1489" />
  <line
     x1="126.5007"
     y1="665"
     x2="817.5007"
     y2="665"
     fill="none"
     stroke="#3f3d56"
     stroke-miterlimit="10"
     id="line1495" />
  <path
     d="M273.91,586.17171l-.19054,1.39753-1.17788,8.6235-1.929,14.12215-.48293,3.53574a1.12631,1.12631,0,0,1-1.11622.97418h-12.8632a1.12662,1.12662,0,0,1-1.11622-.97141l-.49125-3.53851-1.96152-14.12215-1.19868-8.62974-.19261-1.38852a1.12628,1.12628,0,0,1,1.11552-1.28182H272.7938A1.127,1.127,0,0,1,273.91,586.17171Z"
     transform="translate(-102.4993 -31.62564)"
     fill="#f0f5f9"
     id="path1533" />
  <text
     y="0"
     x="110.79875"
     transform="matrix(1.1206194,0,0,1,-55.727757,-5.7051048)"
     style="font-size:40px;line-height:1.25;font-family:'Amatic SC';-inkscape-font-specification:'Amatic SC';white-space:pre;shape-inside:url(#rect862);"
     id="text860"
     xml:space="preserve"><tspan
       x="374.34863"
       y="489.83386"><tspan
         style="text-align:center;text-anchor:middle;fill:#f0f5f9;fill-opacity:1">     Historia del Café      </tspan></tspan><tspan
       x="452.00488"
       y="539.83386"><tspan
         style="text-align:center;text-anchor:middle;fill:#f0f5f9;fill-opacity:1">Mexicano</tspan></tspan></text>
</svg>
