<?xml version="1.0" encoding="UTF-8" standalone="no"?>
<svg
   xmlns:dc="http://purl.org/dc/elements/1.1/"
   xmlns:cc="http://creativecommons.org/ns#"
   xmlns:rdf="http://www.w3.org/1999/02/22-rdf-syntax-ns#"
   xmlns:svg="http://www.w3.org/2000/svg"
   xmlns="http://www.w3.org/2000/svg"
   xmlns:sodipodi="http://sodipodi.sourceforge.net/DTD/sodipodi-0.dtd"
   xmlns:inkscape="http://www.inkscape.org/namespaces/inkscape"
   height="512"
   viewBox="0 0 52 58"
   width="512"
   version="1.1"
   id="svg1241"
   sodipodi:docname="bean.svg"
   inkscape:version="1.0 (4035a4fb49, 2020-05-01)">
  <metadata
     id="metadata1247">
    <rdf:RDF>
      <cc:Work
         rdf:about="">
        <dc:format>image/svg+xml</dc:format>
        <dc:type
           rdf:resource="http://purl.org/dc/dcmitype/StillImage" />
        <dc:title></dc:title>
      </cc:Work>
    </rdf:RDF>
  </metadata>
  <defs
     id="defs1245">
    <rect
       id="rect960"
       height="27.473684"
       width="15.602339"
       y="39.05614"
       x="12.177778" />
    <rect
       id="rect954"
       height="19.876023"
       width="44.771929"
       y="59.814034"
       x="57.763742" />
    <rect
       x="8.3111111"
       y="23.996491"
       width="29.847953"
       height="9.5649123"
       id="rect2188" />
  </defs>
  <sodipodi:namedview
     inkscape:document-rotation="0"
     pagecolor="#ffffff"
     bordercolor="#666666"
     borderopacity="1"
     objecttolerance="10"
     gridtolerance="10"
     guidetolerance="10"
     inkscape:pageopacity="0"
     inkscape:pageshadow="2"
     inkscape:window-width="1920"
     inkscape:window-height="1051"
     id="namedview1243"
     showgrid="false"
     inkscape:zoom="1.6699219"
     inkscape:cx="229.86647"
     inkscape:cy="220.59353"
     inkscape:window-x="-9"
     inkscape:window-y="-9"
     inkscape:window-maximized="1"
     inkscape:current-layer="g93" />
  <g
     id="Page-1"
     fill="none"
     fill-rule="evenodd">
    <g
       id="090---Coffee-Beans"
       fill-rule="nonzero"
       transform="translate(-1 -1)">
      <g
         transform="translate(-38.79197,-2.5634887)"
         id="g93">
        <g
           transform="matrix(1.0626509,0,0,1.0626509,-3.8430559,-2.0346673)"
           id="g972">
          <path
             id="path1233"
             d="m 67.548698,30.525183 c -1.711477,2.154904 -4.144662,2.591078 -5.431361,0.976198 -0.03377,-0.04253 -0.06544,-0.08761 -0.09485,-0.135004 -0.0931,-0.125499 -0.177264,-0.261017 -0.251566,-0.405018 1.018639,-1.220247 1.785711,-0.290783 2.804348,-1.568145 1.035135,-1.303328 0.259815,-2.274333 1.294948,-3.577659 1.014516,-1.277365 1.785711,-0.347901 2.800225,-1.568149 h 0.0041 c 0.07431,0.149092 0.139108,0.305358 0.193825,0.46733 0.573241,1.687574 0.0866,4.05018 -1.319694,5.810447 z"
             fill="#805333"
             style="stroke-width:0.462754" />
          <path
             id="path1235"
             d="m 68.674563,24.247404 h -0.0041 c -1.014513,1.220248 -1.785709,0.290784 -2.800224,1.568149 -1.035134,1.303327 -0.259814,2.274331 -1.294949,3.577658 -1.018637,1.277363 -1.785709,0.347899 -2.804348,1.568146 -0.07809,-0.150803 -0.144389,-0.310794 -0.19795,-0.477712 -0.569119,-1.687576 -0.07835,-4.044988 1.323817,-5.800067 1.711477,-2.154904 4.140539,-2.591076 5.431363,-0.981388 0.0349,0.04119 0.06664,0.08639 0.09485,0.135004 0.09219,0.128302 0.176294,0.265463 0.251566,0.41021 z"
             fill="#a56a43"
             style="stroke-width:0.462754" />
          <path
             id="path1237"
             d="m 68.868392,24.714733 c -0.42147,0.475064 -0.95729,0.758452 -1.521771,0.804844 -0.925493,0.06439 -1.664469,0.994817 -1.715601,2.160095 -0.10075,1.624166 -1.126566,2.913564 -2.41669,3.037637 -0.433132,0.02157 -0.845155,0.241256 -1.158855,0.61791 -0.0088,0.01361 -0.02022,0.02427 -0.033,0.03116 -0.0931,-0.125498 -0.177263,-0.261016 -0.251565,-0.405017 -0.07809,-0.150804 -0.144389,-0.310795 -0.19795,-0.477713 0.425874,-0.467937 0.961918,-0.74703 1.525896,-0.794459 0.925491,-0.06439 1.664465,-0.994818 1.715601,-2.160095 0.100749,-1.624165 1.126566,-2.913562 2.416688,-3.037634 0.431854,-0.02192 0.842488,-0.241648 1.154732,-0.617913 0.01134,-0.01361 0.02378,-0.02588 0.03712,-0.03634 0.188359,0.257196 0.339146,0.554275 0.445397,0.877539 z"
             fill="#603e26"
             style="stroke-width:0.462754" />
        </g>
      </g>
    </g>
  </g>
</svg>
