<?xml version="1.0" encoding="UTF-8" standalone="no"?>
<svg
   xmlns:dc="http://purl.org/dc/elements/1.1/"
   xmlns:cc="http://creativecommons.org/ns#"
   xmlns:rdf="http://www.w3.org/1999/02/22-rdf-syntax-ns#"
   xmlns:svg="http://www.w3.org/2000/svg"
   xmlns="http://www.w3.org/2000/svg"
   xmlns:sodipodi="http://sodipodi.sourceforge.net/DTD/sodipodi-0.dtd"
   xmlns:inkscape="http://www.inkscape.org/namespaces/inkscape"
   height="512"
   viewBox="0 0 52 58"
   width="512"
   version="1.1"
   id="svg1241"
   sodipodi:docname="beans-bag-chiapas.svg"
   inkscape:version="1.0 (4035a4fb49, 2020-05-01)">
  <metadata
     id="metadata1247">
    <rdf:RDF>
      <cc:Work
         rdf:about="">
        <dc:format>image/svg+xml</dc:format>
        <dc:type
           rdf:resource="http://purl.org/dc/dcmitype/StillImage" />
        <dc:title></dc:title>
      </cc:Work>
    </rdf:RDF>
  </metadata>
  <defs
     id="defs1245">
    <rect
       id="rect960"
       height="27.473684"
       width="15.602339"
       y="39.05614"
       x="12.177778" />
    <rect
       id="rect954"
       height="19.876023"
       width="44.771929"
       y="59.814034"
       x="57.763742" />
    <rect
       x="8.3111111"
       y="23.996491"
       width="29.847953"
       height="9.5649123"
       id="rect2188" />
  </defs>
  <sodipodi:namedview
     inkscape:document-rotation="0"
     pagecolor="#ffffff"
     bordercolor="#666666"
     borderopacity="1"
     objecttolerance="10"
     gridtolerance="10"
     guidetolerance="10"
     inkscape:pageopacity="0"
     inkscape:pageshadow="2"
     inkscape:window-width="1920"
     inkscape:window-height="1051"
     id="namedview1243"
     showgrid="false"
     inkscape:zoom="1.6699219"
     inkscape:cx="229.86647"
     inkscape:cy="-77.062253"
     inkscape:window-x="-9"
     inkscape:window-y="-9"
     inkscape:window-maximized="1"
     inkscape:current-layer="g950" />
  <g
     id="Page-1"
     fill="none"
     fill-rule="evenodd">
    <g
       id="090---Coffee-Beans"
       fill-rule="nonzero"
       transform="translate(-1 -1)">
      <path
         id="Shape"
         d="m45 11v-9c-.0022703-.32142619-.1578508-.62245658-.4187432-.81022004-.2608923-.18776346-.5957467-.23969752-.9012568-.13977996l-3.68 1.32-1 .36-1-.33-3.42-1.14c-.1888348-.06847175-.3827673-.12197038-.58-.16-.6593154-.14001203-1.3406846-.14001203-2 0-.1972327.03802962-.3911652.09152825-.58.16l-3.42 1.14-1 .33-1-.33-3.42-1.14c-.1888348-.06847175-.3827673-.12197038-.58-.16-.6593154-.14001203-1.3406846-.14001203-2 0-.1972327.03802962-.3911652.09152825-.58.16l-3.42 1.14-1 .33-1-.36-3.68-1.32c-.3055101-.09991756-.64036447-.0479835-.90125685.13977996s-.41647285.48879385-.41874315.81022004v9c-.99 4.174-1.854 7.808-2.614 11h-.006l-2.071 8.711c-3.444 14.45-3.309 14.007-3.309 16.219v.07c.03 6.64 3.6 12 8 12h36c4.42 0 8-5.4 8-12.07 0-2.91.23-1.34-8-35.93z"
         fill="#cb8252"
         style="fill:#c9d6df;fill-opacity:1" />
      <path
         id="path1211"
         d="m53 46.93c0 6.67-3.58 12.07-8 12.07-4.4 0-7.97-5.36-8-12v-.07c0-3.34.62-4.82 8-35.93 8.23 34.59 8 33.02 8 35.93z"
         fill="#805333"
         style="fill:#52616b;fill-opacity:1" />
      <path
         id="path1213"
         d="m45 59h-36c-4.4 0-7.97-5.36-8-12h36c.03 6.64 3.6 12 8 12z"
         fill="#a56a43"
         style="fill:#52616b;fill-opacity:1;opacity:0.9" />
      <path
         id="path1215"
         d="m45 52c-.5522847 0-1-.4477153-1-1v-18c0-.5522847.4477153-1 1-1s1 .4477153 1 1v18c0 .5522847-.4477153 1-1 1z"
         fill="#603e26"
         style="fill:#f0f5f9;fill-opacity:1" />
      <path
         id="path1217"
         d="m45 2v9h-36v-9c.0022703-.32142619.15785077-.62245658.41874315-.81022004s.59574675-.23969752.90125685-.13977996l3.68 1.32 1 .36 1-.33 3.42-1.14c.1888348-.06847175.3827673-.12197038.58-.16.6593154-.14001203 1.3406846-.14001203 2 0 .1972327.03802962.3911652.09152825.58.16l3.42 1.14 1 .33 1-.33 3.42-1.14c.1888348-.06847175.3827673-.12197038.58-.16.6593154-.14001203 1.3406846-.14001203 2 0 .1972327.03802962.3911652.09152825.58.16l3.42 1.14 1 .33 1-.36 3.68-1.32c.3055101-.09991756.6403645-.0479835.9012568.13977996.2608924.18776346.4164729.48879385.4187432.81022004z"
         fill="#cf976a"
         style="fill:#1e2022;fill-opacity:1" />
      <g
         fill="#a56a43"
         id="g1229">
        <path
           id="path1219"
           d="m16 2.4v8.6h-2v-8.63l1 .36z"
           style="fill:#52616b;fill-opacity:1" />
        <path
           id="path1221"
           d="m22 1.1v9.9h-2v-9.9c.6593154-.14001203 1.3406846-.14001203 2 0z"
           style="fill:#52616b;fill-opacity:1" />
        <path
           id="path1223"
           d="m28 2.4v8.6h-2v-8.6l1 .33z"
           style="fill:#52616b;fill-opacity:1" />
        <path
           id="path1225"
           d="m34 1.1v9.9h-2v-9.9c.6593154-.14001203 1.3406846-.14001203 2 0z"
           style="fill:#52616b;fill-opacity:1" />
        <path
           id="path1227"
           d="m40 2.37v8.63h-2v-8.6l1 .33z"
           style="fill:#52616b;fill-opacity:1" />
      </g>
      <path
         id="path1231"
         d="m39.26 35h-6.59-22.8-6.58l3.09-13h5.96 23.05 6.99z"
         fill="#f9eab0"
         style="fill:#f0f5f9;fill-opacity:1" />
      <g
         transform="translate(-0.66799444,0.14996159)"
         id="g93">
        <path
           style="stroke-width:0.462754"
           fill="#805333"
           d="m 25.8294,31.271382 c -1.711477,2.154904 -4.144662,2.591078 -5.431361,0.976198 -0.03377,-0.04253 -0.06544,-0.08761 -0.09485,-0.135004 -0.0931,-0.125499 -0.177264,-0.261017 -0.251566,-0.405018 1.018639,-1.220247 1.785711,-0.290783 2.804348,-1.568145 1.035135,-1.303328 0.259815,-2.274333 1.294948,-3.577659 1.014516,-1.277365 1.785711,-0.347901 2.800225,-1.568149 h 0.0041 c 0.07431,0.149092 0.139108,0.305358 0.193825,0.46733 0.573241,1.687574 0.0866,4.05018 -1.319694,5.810447 z"
           id="path1233" />
        <path
           style="stroke-width:0.462754"
           fill="#a56a43"
           d="m 26.955265,24.993603 h -0.0041 c -1.014513,1.220248 -1.785709,0.290784 -2.800224,1.568149 -1.035134,1.303327 -0.259814,2.274331 -1.294949,3.577658 -1.018637,1.277363 -1.785709,0.347899 -2.804348,1.568146 -0.07809,-0.150803 -0.144389,-0.310794 -0.19795,-0.477712 -0.569119,-1.687576 -0.07835,-4.044988 1.323817,-5.800067 1.711477,-2.154904 4.140539,-2.591076 5.431363,-0.981388 0.0349,0.04119 0.06664,0.08639 0.09485,0.135004 0.09219,0.128302 0.176294,0.265463 0.251566,0.41021 z"
           id="path1235" />
        <path
           style="stroke-width:0.462754"
           fill="#603e26"
           d="m 27.149094,25.460932 c -0.42147,0.475064 -0.95729,0.758452 -1.521771,0.804844 -0.925493,0.06439 -1.664469,0.994817 -1.715601,2.160095 -0.10075,1.624166 -1.126566,2.913564 -2.41669,3.037637 -0.433132,0.02157 -0.845155,0.241256 -1.158855,0.61791 -0.0088,0.01361 -0.02022,0.02427 -0.033,0.03116 -0.0931,-0.125498 -0.177263,-0.261016 -0.251565,-0.405017 -0.07809,-0.150804 -0.144389,-0.310795 -0.19795,-0.477713 0.425874,-0.467937 0.961918,-0.74703 1.525896,-0.794459 0.925491,-0.06439 1.664465,-0.994818 1.715601,-2.160095 0.100749,-1.624165 1.126566,-2.913562 2.416688,-3.037634 0.431854,-0.02192 0.842488,-0.241648 1.154732,-0.617913 0.01134,-0.01361 0.02378,-0.02588 0.03712,-0.03634 0.188359,0.257196 0.339146,0.554275 0.445397,0.877539 z"
           id="path1237" />
      </g>
      <g
         transform="translate(-0.13567251,0.94970759)"
         id="g950">
        <path
           id="path1231-5"
           d="M 28.691488,42.978361 H 25.540264 14.6377 11.491258 l 1.477584,-6.216374 h 2.849969 11.02211 3.342496 z"
           fill="#f9eab0"
           style="fill:#1e2022;fill-opacity:1;stroke-width:0.478183" />
        <text
           xml:space="preserve"
           style="font-style:normal;font-weight:normal;font-size:3.02083px;line-height:1.25;font-family:sans-serif;fill:#f0f5f9;fill-opacity:1;stroke:none;stroke-width:0.113281"
           x="16.256073"
           y="40.989742"
           id="text945"
           transform="matrix(1.0000102,-0.00101017,-0.02416323,1.0000142,0,0)"><tspan
             sodipodi:role="line"
             id="tspan943"
             x="16.256073"
             y="40.989742"
             style="font-size:3.02083px;fill:#f0f5f9;fill-opacity:1;stroke-width:0.113281">Chiapas</tspan></text>
        <text
           style="fill:black;fill-opacity:1;line-height:1.25;stroke:none;font-family:sans-serif;font-style:normal;font-weight:normal;font-size:4.53125px;white-space:pre;shape-inside:url(#rect954);"
           id="text952"
           xml:space="preserve" />
        <text
           style="fill:black;fill-opacity:1;line-height:1.25;stroke:none;font-family:sans-serif;font-style:normal;font-weight:normal;font-size:4.53125px;white-space:pre;shape-inside:url(#rect960);"
           id="text958"
           xml:space="preserve" />
      </g>
    </g>
  </g>
</svg>
